<?xml version="1.0" standalone="no"?>
<!DOCTYPE svg PUBLIC "-//W3C//DTD SVG 20010904//EN"
 "http://www.w3.org/TR/2001/REC-SVG-20010904/DTD/svg10.dtd">
<svg version="1.0" xmlns="http://www.w3.org/2000/svg"
 width="234.000000pt" height="234.000000pt" viewBox="0 0 234.000000 234.000000"
 preserveAspectRatio="xMidYMid meet">
<metadata>
Created by potrace 1.14, written by Peter Selinger 2001-2017
</metadata>
<g transform="translate(0.000000,234.000000) scale(0.100000,-0.100000)"
fill="#000000" stroke="none">
<path d="M1100 2313 c-106 -15 -204 -66 -286 -148 -158 -157 -196 -391 -97
-590 36 -70 103 -146 168 -189 30 -21 55 -38 55 -39 0 -1 -169 -2 -375 -1
-333 0 -375 -1 -379 -15 -2 -9 -4 -51 -4 -94 l0 -77 992 2 991 3 0 90 0 90
-378 0 c-207 0 -377 2 -377 5 0 3 23 20 51 39 237 161 288 497 111 729 -61 80
-144 139 -243 172 -59 20 -170 31 -229 23z m166 -198 c66 -20 138 -75 175
-133 108 -170 45 -381 -141 -470 -103 -50 -244 -31 -333 44 -76 63 -122 165
-119 259 9 215 214 362 418 300z"/>
<path d="M1809 901 c-211 -83 -223 -379 -19 -483 68 -35 167 -32 238 7 91 49
136 127 135 230 -1 86 -19 130 -77 188 -74 73 -182 95 -277 58z m140 -87 c67
-14 129 -109 118 -180 -25 -150 -219 -193 -303 -67 -28 43 -26 138 4 181 42
57 105 81 181 66z"/>
<path d="M187 903 c-2 -5 -4 -120 -3 -258 l1 -250 110 1 c87 1 119 5 155 21
95 42 144 117 144 222 1 173 -93 256 -293 260 -52 1 -98 4 -102 7 -4 2 -9 1
-12 -3z m217 -117 c52 -22 80 -69 80 -137 0 -32 -6 -70 -14 -84 -20 -37 -69
-64 -128 -69 l-52 -4 0 154 0 154 40 0 c22 0 56 -6 74 -14z"/>
<path d="M1120 900 l-55 -5 0 -245 0 -245 50 0 50 0 2 60 c0 33 2 66 2 73 1 6
14 12 30 12 26 0 34 -8 70 -75 l42 -75 59 0 c33 0 60 3 60 6 0 3 -8 18 -18 32
-10 15 -33 53 -51 84 l-32 57 25 22 c30 26 56 87 56 132 0 18 -10 53 -22 77
-27 53 -84 85 -156 89 -25 1 -48 3 -51 4 -3 1 -31 0 -61 -3z m163 -118 c25
-26 25 -78 0 -104 -21 -21 -112 -38 -114 -22 -1 12 -1 137 0 146 2 15 95 -2
114 -20z"/>
<path d="M1498 902 c-17 -3 -18 -23 -18 -252 l0 -248 46 -4 c25 -2 48 0 51 5
3 4 5 117 5 250 l1 242 -34 5 c-19 3 -42 4 -51 2z"/>
<path d="M780 891 c0 -5 -12 -35 -27 -67 -14 -33 -27 -63 -29 -69 -1 -5 -36
-88 -77 -182 l-75 -173 52 0 52 0 25 52 25 53 77 0 77 1 22 -53 22 -53 53 0
c29 0 53 2 53 5 0 4 -147 348 -175 410 -8 17 -18 43 -24 58 -10 25 -51 40 -51
18z m60 -285 c0 -1 -16 -3 -35 -4 -40 -3 -41 1 -19 53 l16 38 19 -42 c10 -24
19 -44 19 -45z"/>
<path d="M202 158 c3 -127 4 -131 26 -134 18 -3 22 1 23 24 4 82 2 77 42 80
34 3 37 1 38 -25 3 -82 2 -81 47 -74 5 0 9 60 9 132 l0 130 -26 -3 c-24 -3
-26 -7 -29 -55 -3 -51 -3 -51 -35 -49 -18 2 -35 4 -39 5 -3 0 -5 18 -4 39 4
51 -2 62 -30 62 l-25 0 3 -132z"/>
<path d="M568 283 c-2 -4 -4 -64 -4 -133 l1 -125 81 0 c80 0 81 0 79 25 -1 22
-5 25 -41 26 -57 1 -73 9 -67 33 4 17 13 21 44 21 35 0 39 3 39 25 0 25 -13
31 -62 26 -14 -2 -18 5 -18 27 0 28 2 29 43 27 55 -3 64 1 62 28 -1 20 -7 22
-77 25 -42 2 -78 -1 -80 -5z"/>
<path d="M956 163 c-31 -70 -56 -131 -56 -134 0 -14 51 -2 63 16 10 12 27 19
57 19 35 1 44 -2 50 -20 6 -14 17 -21 34 -21 14 0 26 3 26 7 0 9 -107 250
-114 257 -2 2 -29 -54 -60 -124z m76 -32 c2 -7 -5 -15 -14 -16 -19 -3 -22 4
-12 30 7 17 20 10 26 -14z"/>
<path d="M1310 157 l0 -133 78 1 c76 0 77 0 80 27 3 24 0 26 -35 26 -76 -1
-71 -7 -71 95 0 122 2 117 -27 117 l-25 0 0 -133z"/>
<path d="M1607 283 c-4 -3 -7 -16 -7 -28 0 -16 6 -21 23 -20 44 4 48 -4 47
-79 -3 -134 -3 -133 25 -133 14 0 25 5 26 11 0 6 1 54 2 106 l2 94 30 1 c25 0
31 4 33 28 l3 27 -89 0 c-49 0 -92 -3 -95 -7z"/>
<path d="M1962 178 c-1 -145 2 -159 31 -154 13 2 22 11 23 22 1 10 2 34 3 52
1 32 2 33 39 30 36 -3 37 -4 38 -43 1 -22 2 -45 3 -51 0 -6 12 -11 26 -11 l25
0 0 134 0 134 -27 -3 c-26 -3 -28 -6 -28 -53 l0 -50 -37 -2 c-24 -1 -38 2 -39
10 -1 7 -1 31 -1 55 -1 39 -3 42 -28 42 l-27 0 -1 -112z"/>
</g>
</svg>
